<!--?xml version="1.0" encoding="utf-8"?-->
<!-- Svg Vector Icons : http://www.onlinewebfonts.com/icon -->

<svg version="1.1" xmlns="http://www.w3.org/2000/svg" xmlns:xlink="http://www.w3.org/1999/xlink" x="0px" y="0px" viewBox="0 0 256 256" enable-background="new 0 0 256 256" xml:space="preserve">
<metadata> Svg Vector Icons : http://www.onlinewebfonts.com/icon </metadata>
<g><g><g><g><path fill="#f09859" data-title="Layer 0" xs="0" d="M139.3,57.7c-0.8-6-3.4-13-10-17.9c-14-10.4-3.9-18.7-3.9-18.7S100,26.6,103,62c4.5-0.9,9.1-1.4,13.9-1.4c5,0,9.9,0.6,14.7,1.6C134,60.5,136.6,59.1,139.3,57.7z"/><path fill="#f09859" data-title="Layer 1" xs="1" d="M108.3,234.9c0,0,25.4-5.4,22.4-40.9c-4.5,0.9-9.1,1.4-13.9,1.4c-8,0-15.7-1.4-22.8-4c-0.2,6.7,1,17.8,10.3,24.7C118.4,226.6,108.3,234.9,108.3,234.9z"/><path fill="#f09859" data-title="Layer 2" xs="2" d="M53.4,150.8c-2.6-7.1-4-14.8-4-22.8c0-4.8,0.5-9.4,1.4-13.9c-35.4-3-40.9,22.4-40.9,22.4s8.3-10,18.7,3.9C35.6,149.8,46.7,151,53.4,150.8z"/><path fill="#f09859" data-title="Layer 3" xs="3" d="M60.4,91.2C67.2,80.8,76.8,72.3,88.1,67c-4.6-4.9-13.3-11.9-24.8-10.2c-17.2,2.6-16-10.4-16-10.4S33.2,68.2,60.4,91.2z"/><path fill="#f09859" data-title="Layer 4" xs="4" d="M63.3,199.2c11.5,1.7,20.2-5.3,24.8-10.2c-11.3-5.3-20.9-13.8-27.7-24.2c-27.2,22.9-13.1,44.8-13.1,44.8S46.1,196.6,63.3,199.2z"/><path fill="#e7e999" data-title="Layer 5" xs="5" d="M95.8,128c0-22.9,9.8-43.5,25.5-57.9c0.8-0.8,1.7-1.5,2.6-2.3c-2.3-0.3-4.6-0.4-7-0.4c-4.5,0-8.8,0.5-13,1.4c-5.4,1.2-10.5,3.1-15.3,5.6c-9.3,4.9-17.1,12.1-22.7,20.9c-3.8,5.9-6.6,12.5-8.1,19.6c-0.9,4.2-1.4,8.5-1.4,13c0,6.2,0.9,12.3,2.7,17.9c1.6,5.3,3.9,10.2,6.8,14.7c5.6,8.8,13.5,16,22.7,20.9c3.3,1.7,6.7,3.2,10.3,4.3c5.7,1.8,11.7,2.7,17.9,2.7c2.4,0,4.7-0.1,7-0.4c-0.9-0.7-1.8-1.5-2.6-2.3C105.6,171.5,95.8,150.9,95.8,128z"/><path fill="#eee9e3" data-title="Layer 6" xs="6" d="M174.3,56.3c-12.2,0-23.7,3.1-33.8,8.5c-0.3,0.1-0.6,0.3-0.9,0.5c-1,0.6-2,1.2-3.1,1.8c-1.3,0.8-2.5,1.6-3.7,2.5c-0.3,0.2-0.5,0.4-0.8,0.6c-17.8,13-29.4,34.1-29.4,57.8c0,24.1,11.9,45.4,30.2,58.4c1.2,0.9,2.5,1.7,3.7,2.5c1.3,0.8,2.6,1.6,3.9,2.3c10.1,5.4,21.6,8.5,33.8,8.5c39.5,0,71.7-32.1,71.7-71.7C246,88.5,213.9,56.3,174.3,56.3z"/></g></g><g></g><g></g><g></g><g></g><g></g><g></g><g></g><g></g><g></g><g></g><g></g><g></g><g></g><g></g><g></g></g></g>
</svg>